<svg xmlns="http://www.w3.org/2000/svg"  viewBox="0 0 100 100" width="100px" height="100px" baseProfile="basic"><path fill="#a2b4cc" d="M38,84c-2.276,0-5.275-1.017-7.465-1.759c-1.093-0.37-1.955-0.663-2.464-0.736 c-0.566-0.075-1.156-0.143-1.753-0.21c-1.095-0.123-2.228-0.252-3.252-0.44c-4.991-0.93-7.635-4.028-7.07-8.289 c0.137-1.041,0.444-1.926,0.742-2.781c0.518-1.489,1.007-2.896,0.59-4.878c-0.146-0.697-0.321-1.38-0.495-2.054 c-0.601-2.337-1.169-4.544-0.359-6.942c0.458-1.358,1.187-2.468,1.958-3.644c0.528-0.805,1.074-1.637,1.518-2.548 c1.07-1.834,0.87-4.023,0.546-6.289c-0.208-1.453-0.6-2.674-0.944-3.751c-0.498-1.552-0.891-2.777-0.566-4.056 c0.377-1.488,1.684-2.385,3.066-3.334c0.617-0.424,1.257-0.862,1.819-1.363c1.393-1.245,2.296-2.715,3.169-4.138 c1.529-2.491,2.851-4.644,6.429-5.175l0.671-0.106c0.79-0.13,1.608-0.264,2.417-0.264c1.289,0,4.466,0.566,7.019,1.021 c2.004,0.357,3.157,0.56,3.566,0.56c3.45,0,5.526-1.253,8.156-2.84c0.461-0.278,0.942-0.568,1.454-0.866 c0.418-0.243,0.863-0.548,1.338-0.875C59.618,17.191,61.352,16,63.5,16c0.907,0,2.335,0.477,3.276,0.947 c0.938,0.47,1.912,0.854,2.854,1.225c3.196,1.262,5.722,2.259,5.373,5.682c-0.31,3.031,0.144,4.334,3.311,5.61 C80.514,30.345,83,31.341,83,34c0,2.386,0.352,4.437,0.635,6.085C83.831,41.228,84,42.214,84,43c0,2.101-0.45,3.761-1.417,5.225 c-1.43,2.152-2.142,3.225-1.047,5.961c0.355,0.891,0.781,1.576,1.156,2.181C83.395,57.497,84,58.474,84,60.5 c0,3.637-0.578,5.539-1.447,7.276c-0.815,1.632-2.034,2.596-3.324,3.616c-1.211,0.959-2.464,1.949-3.393,3.531 c-1.652,2.813-3.744,3.672-6.799,4.203c-1.437,0.251-2.906,0.442-4.326,0.628c-2.215,0.289-4.506,0.588-6.754,1.12 c-0.994,0.234-2.094,0.425-3.156,0.607c-0.718,0.124-1.425,0.246-2.09,0.38c-1.514,0.306-2.778,0.6-3.928,0.867 C45.611,83.467,43.319,84,39,84H38z"/><path fill="#75849d" d="M84,43c0-0.786-0.169-1.772-0.365-2.915C83.352,38.437,83,36.386,83,34 c0-2.659-2.486-3.655-4.687-4.536c-3.167-1.276-3.62-2.579-3.311-5.61c0.349-3.423-2.177-4.42-5.373-5.682 c-0.941-0.371-1.915-0.755-2.854-1.225c-0.385-0.193-0.856-0.378-1.334-0.54c6.246,2.372,5.622,10.126,5.124,13.113 c-0.13,0.781-0.44,1.808-0.683,2.937c-0.244,1.132-0.515,2.29-0.364,3.805c0.07,0.705,0.434,1.236,0.697,1.597 C70.784,38.638,70.994,40.047,71,41c0.027,3.951-3.372,4.321-1.5,9c1.178,3.499,1.677,5.182-2.5,7c-1.507,0.655-3.647,0.197-5,1 c-1.774,1.047-1.938,2.587-4,3c-3.148,0.626-5.029,2.418-5,6c0.017,1.941-0.143,2.739-1.381,4.332 C50.653,72.573,48.646,73.823,47,74c-1.262,0.139-2.351-1.182-3.529-1.098c-2.779,0.199-3.469,2.289-4.42,3.227 c-2.53,2.494-4.808,5.824-9.377,5.823c0,0,0,0,0,0c0.269,0.089,0.553,0.185,0.861,0.289C32.725,82.983,35.724,84,38,84h1 c4.319,0,6.611-0.533,9.783-1.271c1.149-0.268,2.414-0.562,3.928-0.867c0.665-0.134,1.372-0.256,2.09-0.38 c1.063-0.183,2.162-0.373,3.156-0.607c2.248-0.532,4.539-0.831,6.754-1.12c1.42-0.186,2.89-0.377,4.326-0.628 c3.055-0.531,5.146-1.39,6.799-4.203c0.929-1.582,2.182-2.572,3.393-3.531c1.29-1.021,2.509-1.984,3.324-3.616 C83.422,66.039,84,64.137,84,60.5c0-2.026-0.605-3.003-1.308-4.134c-0.375-0.604-0.801-1.29-1.156-2.181 c-1.095-2.736-0.383-3.809,1.047-5.961C83.55,46.761,84,45.101,84,43z"/><path fill="#8e9cb3" d="M41.013,39c0-2.898,4.411-3.636,5.571-4.482c0.88-0.637,3.947-3.581,6.203-3.982 c1.023,0,1.89,0.528,2.303,1.657c0.51,2.19-0.583,2.924,0.048,3.969c0.429,1.824,2.129,2.249,1.801,3.531 c-0.22,0.876-1.879,1.412-1.931,2.31c-0.055,0.857,0.231,2.604,0.234,3.321c0.006,1.258-2.484,1.192-3.287,1.654 c-1.394,0.803-1.513,1.042-2.623,2.227c-1.137,1.206-1.482,2.887-3.319,2.795c-2.741,0-3.187-5.578-3.5-8 C42.297,42.248,41.066,40.809,41.013,39z"/><path fill="#8e9cb3" d="M27.407,56.642c-0.248-0.373-0.471-1.303-0.39-1.744c0.142-0.719,0.991-1.059,1.265-1.752 c0.297-0.741,1.41-3.892,2.605-3.084c0.858,0.579,0.455,1.84,1.684,2.028c0.574,0.082,0.898-0.128,1.103,0.515 c0.145,0.438-0.044,1.018,0.177,1.413c0.209,0.379,0.759,0.338,0.953,0.645c0.34,0.531-0.288,1.081-0.514,1.508 c-0.384,0.738-0.708,1.622-0.866,2.441c-0.169,0.838-0.224,1.674-1.039,2.158c-0.355,0.209-0.971,0.385-1.433,0.268 c-0.581-0.147-0.994-0.662-1.189-1.079c-0.318-0.678-0.331-1.25-1.241-1.712C27.853,57.772,27.916,57.395,27.407,56.642z"/><g><path fill="#1f212b" d="M39,85h-1c-2.441,0-5.53-1.047-7.786-1.812c-1.018-0.345-1.872-0.635-2.285-0.693 c-0.549-0.073-1.133-0.14-1.723-0.206c-1.05-0.118-2.239-0.252-3.32-0.451c-5.495-1.023-8.514-4.627-7.881-9.403 c0.15-1.145,0.489-2.119,0.789-2.979c0.491-1.414,0.915-2.633,0.556-4.343c-0.144-0.683-0.314-1.351-0.485-2.01 c-0.611-2.38-1.242-4.834-0.338-7.512c0.498-1.479,1.26-2.639,2.066-3.868c0.514-0.782,1.041-1.586,1.457-2.441 c0.946-1.626,0.754-3.626,0.455-5.71c-0.195-1.364-0.571-2.54-0.902-3.576c-0.529-1.647-0.982-3.06-0.588-4.618 c0.47-1.853,1.994-2.899,3.469-3.911c0.602-0.413,1.21-0.831,1.722-1.287c1.285-1.148,2.147-2.555,2.981-3.914 c1.592-2.592,3.095-5.041,7.135-5.641l0.661-0.104c0.783-0.129,1.679-0.276,2.573-0.276c1.37,0,4.441,0.546,7.15,1.028 c1.612,0.287,3.094,0.552,3.435,0.552c3.172,0,5.046-1.131,7.639-2.695c0.466-0.281,0.952-0.574,1.469-0.875 c0.398-0.231,0.821-0.522,1.273-0.834C59.091,16.34,61.042,15,63.5,15c1.111,0,2.709,0.546,3.724,1.053 c0.899,0.45,1.852,0.825,2.772,1.188c3.16,1.248,6.427,2.537,6.002,6.714c-0.274,2.684,0.014,3.503,2.689,4.581 C80.928,29.434,84,30.663,84,34c0,2.305,0.344,4.307,0.62,5.916C84.824,41.102,85,42.126,85,43c0,2.306-0.503,4.141-1.583,5.775 c-1.386,2.087-1.853,2.789-0.952,5.039c0.322,0.807,0.704,1.424,1.074,2.021C84.259,56.993,85,58.188,85,60.5 c0,3.834-0.621,5.86-1.553,7.724c-0.915,1.83-2.278,2.909-3.598,3.952c-1.197,0.948-2.319,1.838-3.151,3.254 c-1.841,3.135-4.23,4.115-7.49,4.683c-1.442,0.252-2.907,0.443-4.324,0.629c-2.237,0.292-4.5,0.587-6.696,1.106 c-1.048,0.247-2.2,0.445-3.218,0.62c-0.715,0.124-1.408,0.243-2.062,0.375c-1.502,0.303-2.757,0.595-3.898,0.86 C45.77,84.457,43.433,85,39,85z M36.556,22.243c-0.731,0-1.506,0.127-2.255,0.25l-0.677,0.107c-3.126,0.465-4.22,2.246-5.732,4.711 c-0.909,1.481-1.85,3.014-3.354,4.359c-0.607,0.541-1.269,0.995-1.908,1.434c-1.289,0.886-2.391,1.642-2.675,2.764 c-0.255,1.002,0.082,2.052,0.549,3.505c0.359,1.124,0.763,2.384,0.982,3.915c0.336,2.35,0.562,4.821-0.673,6.935 c-0.437,0.904-1,1.763-1.545,2.593c-0.737,1.123-1.43,2.18-1.847,3.414c-0.714,2.116-0.207,4.087,0.379,6.368 c0.179,0.693,0.357,1.391,0.507,2.103c0.474,2.254-0.084,3.858-0.623,5.41c-0.282,0.81-0.572,1.644-0.696,2.585 c-0.493,3.728,1.789,6.343,6.263,7.176c1.01,0.187,2.162,0.315,3.18,0.43c0.604,0.068,1.2,0.137,1.773,0.213 c0.606,0.087,1.452,0.374,2.623,0.771C32.979,82.014,35.889,83,38,83h1c4.203,0,6.447-0.521,9.553-1.243 c1.161-0.271,2.436-0.566,3.96-0.875c0.671-0.135,1.384-0.258,2.106-0.383c1.001-0.172,2.122-0.364,3.108-0.598 c2.296-0.543,4.61-0.846,6.849-1.138c1.444-0.188,2.888-0.377,4.289-0.622c2.832-0.492,4.645-1.231,6.108-3.725 c1.021-1.739,2.405-2.835,3.625-3.802c1.263-0.998,2.344-1.854,3.06-3.286C82.464,65.72,83,63.942,83,60.5 c0-1.742-0.485-2.524-1.157-3.606c-0.38-0.611-0.849-1.367-1.235-2.337c-1.29-3.224-0.322-4.681,1.143-6.886 C82.603,46.381,83,44.896,83,43c0-0.704-0.162-1.65-0.351-2.746C82.36,38.57,82,36.476,82,34c0-1.845-1.606-2.626-4.059-3.607 c-3.767-1.519-4.27-3.352-3.934-6.641c0.261-2.556-1.356-3.313-4.745-4.65c-0.962-0.379-1.956-0.771-2.934-1.26 C65.385,17.37,64.143,17,63.5,17c-1.838,0-3.365,1.05-4.844,2.065c-0.497,0.343-0.965,0.661-1.402,0.916 c-0.507,0.295-0.983,0.582-1.44,0.858c-2.653,1.601-4.944,2.983-8.673,2.983c-0.473,0-1.402-0.158-3.742-0.575 C40.99,22.819,37.749,22.243,36.556,22.243z"/><path fill="#1f212b" d="M30.56,82.687c-0.224,0-0.427-0.15-0.484-0.376c-0.068-0.268,0.093-0.54,0.36-0.608 c2.157-0.553,4.055-2.259,5.626-3.855c0.193-0.197,0.51-0.199,0.707-0.006s0.199,0.511,0.006,0.707 c-1.668,1.694-3.696,3.51-6.091,4.123C30.642,82.682,30.601,82.687,30.56,82.687z"/><path fill="#1f212b" d="M38.729,76.272c-0.125,0-0.25-0.047-0.347-0.14c-0.199-0.191-0.205-0.508-0.014-0.707 c0.431-0.447,0.857-0.881,1.288-1.289c1.115-1.057,2.963-2.115,4.499-1.612c0.435,0.143,0.8,0.339,1.121,0.513 c0.561,0.301,1.006,0.537,1.669,0.466c1.415-0.152,3.334-1.264,4.279-2.478c1.144-1.474,1.292-2.144,1.275-4.021 c-0.028-3.592,1.789-5.776,5.402-6.495c1.043-0.209,1.509-0.735,2.099-1.402c0.442-0.499,0.942-1.064,1.745-1.538 c0.82-0.486,1.843-0.563,2.832-0.637c0.82-0.062,1.596-0.119,2.223-0.392c3.814-1.66,3.382-2.946,2.226-6.382 c-1.176-2.938-0.361-4.381,0.427-5.777c0.544-0.964,1.058-1.875,1.047-3.378c-0.005-0.722-0.459-1.496-0.94-2.315l-0.133-0.229 c-0.14-0.239-0.059-0.545,0.18-0.684c0.237-0.142,0.544-0.06,0.684,0.18l0.133,0.226c0.526,0.898,1.071,1.826,1.077,2.815 c0.013,1.77-0.619,2.889-1.177,3.876c-0.764,1.354-1.366,2.423-0.359,4.941c1.144,3.393,1.892,5.617-2.765,7.644 c-0.782,0.341-1.68,0.407-2.547,0.472c-0.914,0.068-1.777,0.133-2.397,0.5c-0.667,0.395-1.093,0.875-1.505,1.341 c-0.629,0.711-1.279,1.445-2.652,1.72c-3.161,0.629-4.622,2.378-4.598,5.506c0.019,2.057-0.184,2.966-1.486,4.643 c-0.971,1.248-3.091,2.657-4.96,2.858c-0.969,0.109-1.623-0.241-2.251-0.579c-0.313-0.169-0.608-0.328-0.959-0.443 c-1.039-0.341-2.544,0.482-3.5,1.388c-0.419,0.397-0.836,0.821-1.255,1.257C38.99,76.221,38.859,76.272,38.729,76.272z"/><path fill="#1f212b" d="M69,36.5c-0.267,0-0.487-0.21-0.5-0.478c-0.07-1.597,0.177-2.818,0.428-3.804 c0.067-0.268,0.338-0.434,0.607-0.361c0.268,0.068,0.43,0.34,0.361,0.607c-0.232,0.915-0.462,2.047-0.397,3.513 c0.013,0.276-0.201,0.51-0.477,0.521C69.015,36.5,69.007,36.5,69,36.5z"/><path fill="#1f212b" d="M70.122,29.742c-0.025,0-0.05-0.002-0.075-0.006c-0.273-0.041-0.461-0.296-0.42-0.568 c1.001-6.645-0.487-10.749-4.424-12.201c-0.259-0.095-0.392-0.383-0.296-0.642s0.387-0.392,0.642-0.296 c4.443,1.638,6.148,6.108,5.066,13.287C70.578,29.564,70.365,29.742,70.122,29.742z"/><path fill="#1f212b" d="M31.657,61.5c-0.13,0-0.258-0.017-0.383-0.051c-0.692-0.186-1.135-0.824-1.511-1.488 c-0.136-0.24-0.051-0.545,0.189-0.682c0.239-0.136,0.545-0.053,0.682,0.189c0.255,0.451,0.562,0.925,0.898,1.015 c0.059,0.019,0.244,0.066,0.599-0.143c0.494-0.293,0.604-0.767,0.742-1.514l0.06-0.312c0.159-0.826,0.493-1.766,0.914-2.574 c0.066-0.125,0.159-0.258,0.257-0.396c0.2-0.28,0.348-0.504,0.279-0.61c-0.019-0.014-0.128-0.058-0.199-0.086 c-0.229-0.091-0.574-0.229-0.771-0.589c-0.185-0.33-0.182-0.692-0.179-1.013c0.002-0.188,0.004-0.365-0.035-0.482 c-0.039-0.122-0.067-0.155-0.067-0.155c-0.002,0.009-0.107,0.008-0.182,0.006c-0.134-0.002-0.283-0.006-0.45-0.029 c-1.001-0.152-1.259-0.857-1.447-1.372c-0.132-0.359-0.225-0.588-0.445-0.737c-0.088-0.059-0.132-0.05-0.173-0.036 c-0.292,0.091-0.809,0.633-1.612,2.697l-0.077,0.196c-0.164,0.415-0.466,0.712-0.732,0.975c-0.246,0.242-0.459,0.451-0.506,0.688 c-0.053,0.29,0.13,1.089,0.316,1.37c0.22,0.323,0.563,0.563,0.927,0.817c0.125,0.087,0.251,0.175,0.372,0.267 c0.222,0.165,0.266,0.479,0.1,0.699c-0.164,0.222-0.479,0.268-0.699,0.1c-0.113-0.084-0.229-0.165-0.345-0.246 c-0.423-0.295-0.859-0.6-1.185-1.08c-0.303-0.455-0.577-1.518-0.469-2.113c0.108-0.547,0.469-0.901,0.787-1.214 c0.215-0.212,0.418-0.411,0.505-0.632l0.074-0.189c0.567-1.456,1.278-2.986,2.246-3.288c0.356-0.111,0.711-0.054,1.03,0.162 c0.5,0.338,0.68,0.828,0.824,1.222c0.181,0.493,0.264,0.667,0.654,0.727c0.117,0.017,0.225,0.018,0.321,0.019 c0.367,0.007,0.921,0.016,1.184,0.84c0.09,0.27,0.087,0.553,0.084,0.802c-0.002,0.205-0.004,0.416,0.054,0.519 c0.026,0.049,0.16,0.102,0.267,0.145c0.209,0.083,0.495,0.197,0.672,0.478c0.437,0.682-0.029,1.336-0.307,1.728 c-0.071,0.099-0.14,0.193-0.187,0.281c-0.377,0.724-0.676,1.563-0.818,2.303l-0.058,0.301c-0.144,0.773-0.306,1.651-1.217,2.191 C32.304,61.4,31.975,61.5,31.657,61.5z"/><path fill="#1f212b" d="M46.155,52.504c-0.055,0-0.109-0.002-0.167-0.005l0,0c-2.947,0-3.541-4.898-3.896-7.825 l-0.075-0.609c-0.092-0.742-0.386-1.433-0.697-2.163c-0.382-0.895-0.775-1.819-0.807-2.887c0-2.481,2.659-3.557,4.419-4.268 c0.566-0.229,1.101-0.445,1.358-0.633c0.141-0.103,0.333-0.253,0.564-0.434c1.38-1.081,3.949-3.093,5.932-3.145 c0.32,0.01,0.506,0.212,0.513,0.487s-0.211,0.506-0.487,0.513c-1.651,0.043-4.144,1.994-5.341,2.932 c-0.243,0.19-0.445,0.349-0.594,0.456c-0.356,0.259-0.919,0.486-1.57,0.75c-1.601,0.647-3.794,1.533-3.794,3.326 c0.025,0.864,0.365,1.663,0.727,2.509c0.325,0.763,0.661,1.551,0.77,2.43l0.076,0.614c0.272,2.255,0.841,6.947,2.928,6.947 c0.998,0.055,1.406-0.49,2.052-1.449c0.267-0.396,0.542-0.806,0.902-1.188l0.399-0.431c0.776-0.841,1.067-1.155,2.339-1.888 c0.327-0.188,0.806-0.291,1.312-0.4c0.77-0.166,1.726-0.372,1.724-0.817c-0.001-0.285-0.05-0.738-0.102-1.23 c-0.078-0.74-0.166-1.58-0.131-2.125c0.04-0.691,0.635-1.162,1.158-1.576c0.34-0.269,0.725-0.572,0.787-0.824 c0.165-0.646-0.11-0.884-0.806-1.408c-0.207-0.156-0.422-0.318-0.626-0.504c-0.381-0.348-0.646-0.713-0.811-1.119 c-0.104-0.255,0.019-0.547,0.274-0.651c0.253-0.104,0.547,0.018,0.651,0.274c0.108,0.265,0.291,0.513,0.558,0.757 c0.18,0.163,0.371,0.307,0.555,0.445c0.673,0.507,1.51,1.138,1.174,2.452c-0.146,0.579-0.649,0.978-1.136,1.362 c-0.359,0.284-0.767,0.606-0.781,0.853c-0.03,0.465,0.054,1.259,0.127,1.96c0.057,0.541,0.106,1.009,0.107,1.33 c0.007,1.257-1.449,1.57-2.513,1.8c-0.409,0.088-0.832,0.18-1.024,0.29c-1.139,0.655-1.362,0.897-2.102,1.699l-0.405,0.437 c-0.306,0.324-0.559,0.699-0.803,1.063C48.296,51.499,47.62,52.504,46.155,52.504z"/><path fill="#1f212b" d="M54.688,34.45c-0.022,0-0.045-0.001-0.068-0.005c-0.273-0.037-0.465-0.288-0.428-0.563 c0.059-0.438,0.093-0.909-0.057-1.393c-0.082-0.265,0.065-0.544,0.329-0.626c0.268-0.085,0.545,0.066,0.626,0.329 c0.208,0.671,0.163,1.299,0.092,1.824C55.148,34.269,54.934,34.45,54.688,34.45z"/></g></svg>