<svg xmlns="http://www.w3.org/2000/svg"  viewBox="0 0 512 512" width="128px" height="128px"><path fill="#f4efef" d="M414.29,26.38,271.43,213.09,254.94,192.4,389.05,20.61a11.988,11.988,0,0,1,16.84-2.06A65.961,65.961,0,0,1,414.29,26.38Z"/><path fill="#5fa8ed" d="M252.49,322.66,218.1,366.72a19.785,19.785,0,0,0-3.13,18.24A85.037,85.037,0,0,1,80.04,476.65c-36.09-29.64-41.35-83.66-11.73-119.8a84.6,84.6,0,0,1,42.27-27.79,156.81,156.81,0,0,0,80.3-54.6Zm-77,120.88a53.046,53.046,0,1,0-74.44,9.14A53.125,53.125,0,0,0,175.49,443.54Z"/><path fill="#ccd3df" d="M414.29,26.38a66.344,66.344,0,0,1,2.99,85.19L305.08,255.3l-33.65-42.21Z"/><polygon fill="#ccd3df" points="205.45 255.81 255.58 318.7 252.49 322.66 190.88 274.46 205.45 255.81"/><path fill="#b0b5ca" d="M119.01,21.87a11.976,11.976,0,0,0-16.86-1.89A66.323,66.323,0,0,0,91.7,113.11L255.58,318.7l3.04,3.82,61.12-48.83Z"/><path fill="#5fa8ed" d="M443.14,354.83c29.99,35.84,25.28,89.91-10.52,119.92a85.035,85.035,0,0,1-135.85-90.32,19.786,19.786,0,0,0-3.31-18.21l-34.84-43.7,61.12-48.83a156.865,156.865,0,0,0,80.85,53.78A84.561,84.561,0,0,1,443.14,354.83Zm-31.77,96.16a53.06,53.06,0,1,0-74.52-8.38A53.129,53.129,0,0,0,411.37,450.99Z"/><path fill="#888ea0" d="M276.951,307.875,121.7,113.11a66.333,66.333,0,0,1,2.131-85.192L119.01,21.87a11.976,11.976,0,0,0-16.86-1.89A66.323,66.323,0,0,0,91.7,113.11L255.58,318.7l3.04,3.82h0Z"/><path fill="#4783b5" d="M341.54,462.62a85.084,85.084,0,0,1-14.77-78.19,19.786,19.786,0,0,0-3.31-18.21l-46.509-58.345L258.62,322.52h0l34.84,43.7a19.786,19.786,0,0,1,3.31,18.21A85.062,85.062,0,0,0,393.047,493.3,84.66,84.66,0,0,1,341.54,462.62Z"/><path fill="#6d7486" d="M254.97,239.66a16.475,16.475,0,1,1-16.45,16.48A16.471,16.471,0,0,1,254.97,239.66Z"/><path fill="#f4f8fc" d="M192.326,160.505a5.989,5.989,0,0,1-4.7-2.27l-4.041-5.092a6,6,0,1,1,9.4-7.46l4.041,5.092a6,6,0,0,1-4.695,9.73Z"/><path fill="#f4f8fc" d="M178.648,143.271a5.985,5.985,0,0,1-4.7-2.27L132.867,89.242a6,6,0,1,1,9.4-7.46l41.077,51.76a6,6,0,0,1-4.7,9.729Z"/></svg>